<svg id="fizzy" enable-background="new 0 0 512 512" height="512" viewBox="0 0 512 512" width="512" xmlns="http://www.w3.org/2000/svg"><g><g><g><path d="m377.167 130.837-19.659-32.734c7.089-2.087 12.268-8.632 12.268-16.397 0-9.445-7.656-17.101-17.101-17.101h-64.477l19.587-26.818c5.57-7.627 3.903-18.326-3.724-23.896s-18.326-3.903-23.896 3.724l-34.32 46.991h-103.11c-9.445 0-17.101 7.656-17.101 17.101 0 7.675 5.056 14.168 12.018 16.333l-19.49 32.849c-2.726 4.595-4.165 9.839-4.165 15.181v277.217c0 5.342 1.439 10.587 4.165 15.181l17.21 29.005c-5.754 2.754-9.738 8.612-9.738 15.417 0 9.444 7.656 17.101 17.101 17.101h209.94c9.445 0 17.101-7.657 17.101-17.101 0-6.884-4.077-12.802-9.94-15.514l17.331-28.857c2.779-4.626 4.246-9.921 4.246-15.318v-277.046c.001-5.397-1.467-10.691-4.246-15.318z" fill="#96b4eb"/><path d="m115.716 140.822h262.95v284.626h-262.95z" fill="#d789b9"/><path d="m115.12 339.657c6.873-20.09 23.925-52.206 60.066-76.532 52.728-35.49 117.624-11.154 151.086-35.49s53.742-78.078 53.742-78.078l.797 88.844c-6.319 20.074-17.848 49.285-35.473 67.311-28.926 29.584-96.975 16.433-143.033 60.233-20.149 19.162-31.422 38.339-38.014 57.504h-50.295z" fill="#fff"/></g><path d="m361.453 279.002c1.001-2.002 3.003-5.004 4.003-7.006 4.878-12.196 10.498-23.647 15.957-35.036v-76.882c-.651.922-1.299 1.857-1.945 2.827-17.092 23.389-31.763 46.775-53.452 64.35v89.991c15.803-7.015 28.125-21.792 35.437-38.244z" fill="#e1bdfc"/><path d="m154.413 404.234c-8.327 0-16.037-4.39-20.286-11.551l-16.828-28.362c-2.161-3.643-3.302-7.801-3.302-12.036v71.001c0 1.424.11 2.839.311 4.238l47.941-.369c3.906-7.523 7.203-15.449 10.92-22.921-11.328 0-18.756 0-18.756 0z" fill="#e1bdfc"/><path d="m365.456 271.996c-1.001 2.002-3.003 5.004-4.003 7.006-7.312 16.452-19.634 31.229-35.437 38.244v34.97c0 14.942 1.62 28.779-8.602 39.998s-18.621 12.019-32.06 12.019c-10.061 0-78.442 0-112.185 0-3.717 7.472-7.014 15.398-10.92 22.921l219.07-1.685c.058-.754.094-1.51.094-2.27v-186.239c-5.458 11.389-11.078 22.841-15.957 35.036z" fill="#c668b9"/><path d="m162.25 427.155-47.941.369c.555 3.852 1.854 7.573 3.854 10.943l17.087 28.798h224.654l17.265-28.747c2.387-3.975 3.8-8.445 4.152-13.048z" fill="#8286ea"/><path d="m377.167 130.837-18.303-30.476h-48.261l12.046 20.058c2.203 3.668 3.367 7.866 3.367 12.144v10.965l55.219-.472c-.452-4.309-1.824-8.483-4.068-12.219z" fill="#8286ea"/><path d="m326.016 143.528v83.727c21.689-17.575 36.36-40.96 53.452-64.35.647-.97 1.295-1.905 1.945-2.827v-13.924c0-1.039-.071-2.071-.179-3.099z" fill="#c668b9"/><ellipse cx="33.647" cy="107.853" fill="#d789b9" rx="17.952" ry="17.952" transform="matrix(.926 -.379 .379 .926 -38.322 20.762)"/><ellipse cx="488.561" cy="167.119" fill="#d789b9" rx="7.744" ry="7.744" transform="matrix(.924 -.383 .383 .924 -26.764 199.686)"/><path d="m447.351 7.987 8.221 23.117c.352.99 1.049 1.774 1.928 2.17l20.538 9.253c2.902 1.307 2.902 5.93 0 7.238l-20.538 9.254c-.879.396-1.576 1.181-1.928 2.17l-8.221 23.117c-1.161 3.266-5.269 3.266-6.431 0l-8.221-23.117c-.352-.99-1.049-1.774-1.928-2.17l-20.538-9.253c-2.902-1.307-2.902-5.93 0-7.238l20.538-9.253c.879-.396 1.576-1.181 1.928-2.17l8.221-23.117c1.162-3.267 5.269-3.267 6.431-.001z" fill="#e8c2d8"/></g><g><path d="m385.747 125.684-13.289-22.128c5.717-5.16 9.316-12.623 9.316-20.911 0-15.535-12.639-28.173-28.173-28.173h-43.129l7.079-9.693c9.162-12.545 6.41-30.205-6.135-39.368-12.543-9.161-30.204-6.411-39.367 6.135l-31.351 42.925h-98.889c-15.534 0-28.173 12.638-28.173 28.173 0 8.222 3.542 15.632 9.179 20.787l-13.261 22.349c-3.641 6.137-5.566 13.153-5.566 20.288v277.216c0 7.135 1.924 14.151 5.566 20.288l12.174 20.518c-5 5.087-8.092 12.056-8.092 19.735 0 15.534 12.638 28.173 28.173 28.173h211.792c15.534 0 28.173-12.638 28.173-28.173 0-7.743-3.141-14.766-8.214-19.863l12.187-20.293c3.713-6.181 5.675-13.26 5.675-20.471v-277.043c0-7.211-1.962-14.29-5.675-20.471zm-30.574 330.016c-.521-.029-1.044-.046-1.572-.046h-211.792c-.597 0-1.188.025-1.775.062l-13.265-22.356c-.258-.434-.493-.88-.716-1.331h243.262c-.226.453-.466.9-.727 1.335zm16.232-306.322v5.211c-6.662 15.103-24.097 50.321-48.665 68.189-13.728 9.983-34.073 10.945-57.632 12.058-29.566 1.397-63.076 2.98-93.275 23.306-22.874 15.396-38.014 33.672-47.828 49.405v-158.169zm0 98.141c-6.638 18.468-16.604 39.925-30.36 53.995-11.867 12.137-31.766 16.483-54.807 21.517-28.917 6.317-61.692 13.477-88.071 38.563-18.529 17.621-31.295 36.752-39.02 58.425h-35.142v-86.704c6.994-16.342 22.635-43.738 54.534-65.209 27.414-18.451 59.143-19.951 87.136-21.273 24.424-1.154 47.494-2.244 64.128-14.341 17.913-13.028 32.036-33.686 41.602-50.865zm-199.43 172.501c7.198-18.224 18.507-34.542 34.469-49.723 23.946-22.772 54.978-29.551 82.357-35.532 23.888-5.218 46.452-10.148 60.831-24.854 8.638-8.835 15.851-20.113 21.773-31.82v141.929zm116.239-396.668c1.285-1.759 3.178-2.913 5.331-3.248 2.154-.336 4.307.187 6.067 1.472 3.632 2.652 4.428 7.765 1.776 11.397l-15.702 21.498h-20.2zm-146.405 51.136h211.792c4.497 0 8.156 3.659 8.156 8.156s-3.659 8.156-8.156 8.156h-211.792c-4.497 0-8.156-3.659-8.156-8.156s3.659-8.156 8.156-8.156zm0 36.33h211.661l15.118 25.173c.27.449.515.91.747 1.378h-243.301c.229-.465.47-.925.736-1.373l14.94-25.18c.033-.001.066.002.099.002zm211.792 381.165h-211.792c-4.497 0-8.156-3.659-8.156-8.156s3.659-8.156 8.156-8.156h211.792c4.497 0 8.156 3.659 8.156 8.156s-3.658 8.156-8.156 8.156z" fill="#3c122c"/><path d="m192.121 190.019c-5.505 0-9.981-4.449-10.007-9.961-.026-5.527 4.433-10.029 9.961-10.056 19.298-.092 37.224-.092 56.414 0 5.527.026 9.987 4.529 9.96 10.056-.026 5.511-4.503 9.96-10.007 9.96-.017 0-.032 0-.049 0-19.124-.091-36.989-.091-56.224 0-.016.001-.032.001-.048.001z" fill="#fff"/><path d="m158.03 190.019h-12.085c-5.527 0-10.008-4.481-10.008-10.008s4.481-10.008 10.008-10.008h12.085c5.528 0 10.008 4.481 10.008 10.008 0 5.528-4.48 10.008-10.008 10.008z" fill="#fff"/><g fill="#3c122c"><path d="m282.197 372.131c-3.316 0-6.005-2.689-6.005-6.005v-11.028c0-3.316 2.689-6.005 6.005-6.005s6.005 2.689 6.005 6.005v11.028c0 3.316-2.689 6.005-6.005 6.005z"/><path d="m345.035 355.329c-3.316 0-6.005-2.689-6.005-6.005v-11.028c0-3.316 2.689-6.005 6.005-6.005s6.005 2.689 6.005 6.005v11.028c0 3.316-2.689 6.005-6.005 6.005z"/><path d="m312.771 389.237c-3.316 0-6.005-2.689-6.005-6.005v-11.028c0-3.316 2.689-6.005 6.005-6.005s6.005 2.689 6.005 6.005v11.028c0 3.316-2.689 6.005-6.005 6.005z"/></g></g></g></svg>