<svg width="512" height="512" viewBox="0 0 512 512" fill="none" xmlns="http://www.w3.org/2000/svg">
<path opacity="0.8" d="M417.75 371.95C417.25 370.7 416.7 369.5 416.15 368.25C409.5 353.5 390.85 348.8 378 358.65L377.7 358.95C369.2 367.45 366.85 380.25 371.55 391.3C378.1 406.65 381.7 423.5 381.7 441.2C381.7 441.95 381.1 442.55 380.35 442.55H127.3C126.55 442.55 125.95 441.95 125.95 441.2C125.95 371.8 181.6 315.8 250.6 314H252.6C259.15 314 265.6 313.5 271.95 312.5C274.4 312.15 276.9 311.7 279.45 311.1C279.6 311.05 279.75 311.05 279.95 311C300.15 306.5 318.9 297 334.65 283.1C334.75 283 334.9 282.9 335 282.75C336.9 281.05 338.75 279.3 340.6 277.5C364.1 254 377.05 222.7 377.05 189.45C377.05 156.2 364.1 124.95 340.6 101.4C317.1 77.9 285.8 64.95 252.55 64.95C219.3 64.95 188.05 77.9 164.5 101.4C141 124.9 128.05 156.2 128.05 189.45C128.05 222.7 141 253.95 164.5 277.5C166.6 279.6 168.8 281.65 171.05 283.6C155.2 291.9 140.8 302.55 128 315.3C111.65 331.65 98.85 350.65 89.9 371.85C80.6 393.8 75.9 417.1 75.9 441.1C75.9 451.35 76.8 461.65 78.55 471.75C80.65 483.75 91.05 492.45 103.2 492.45H404.45C416.6 492.45 427 483.7 429.1 471.75C430.85 461.65 431.75 451.35 431.75 441.1C431.75 417.2 427.05 393.9 417.75 371.95V371.95ZM254.75 115.1C294.15 116.25 326.1 148.3 327.05 187.7C328 226.5 299.1 258.85 261.75 263.5C259.1 263.4 256.5 263.3 253.85 263.3C250.6 263.3 247.35 263.4 244.15 263.55C207.05 259.35 178.1 227.75 178.1 189.55C178.05 147.75 212.65 113.85 254.75 115.1V115.1Z" fill="#9341C0"/>
<path opacity="0.8" d="M79 464.65C79 471.93 81.892 478.912 87.0399 484.06C92.1878 489.208 99.1698 492.1 106.45 492.1C113.73 492.1 120.712 489.208 125.86 484.06C131.008 478.912 133.9 471.93 133.9 464.65C133.9 457.37 131.008 450.388 125.86 445.24C120.712 440.092 113.73 437.2 106.45 437.2C99.1698 437.2 92.1878 440.092 87.0399 445.24C81.892 450.388 79 457.37 79 464.65V464.65Z" fill="#9341C0"/>
<path opacity="0.8" d="M181 286.95C181 290.555 181.71 294.124 183.09 297.455C184.469 300.785 186.491 303.811 189.04 306.36C191.589 308.909 194.615 310.931 197.945 312.31C201.276 313.69 204.845 314.4 208.45 314.4C212.055 314.4 215.624 313.69 218.955 312.31C222.285 310.931 225.311 308.909 227.86 306.36C230.409 303.811 232.431 300.785 233.81 297.455C235.19 294.124 235.9 290.555 235.9 286.95C235.9 283.345 235.19 279.776 233.81 276.445C232.431 273.115 230.409 270.089 227.86 267.54C225.311 264.991 222.285 262.969 218.955 261.59C215.624 260.21 212.055 259.5 208.45 259.5C204.845 259.5 201.276 260.21 197.945 261.59C194.615 262.969 191.589 264.991 189.04 267.54C186.491 270.089 184.469 273.115 183.09 276.445C181.71 279.776 181 283.345 181 286.95V286.95Z" fill="#9341C0"/>
<path opacity="0.8" d="M373.8 464.9C373.8 472.18 376.692 479.162 381.84 484.31C386.988 489.458 393.97 492.35 401.25 492.35C408.53 492.35 415.512 489.458 420.66 484.31C425.808 479.162 428.7 472.18 428.7 464.9C428.7 457.62 425.808 450.638 420.66 445.49C415.512 440.342 408.53 437.45 401.25 437.45C393.97 437.45 386.988 440.342 381.84 445.49C376.692 450.638 373.8 457.62 373.8 464.9V464.9Z" fill="#9341C0"/>
</svg>
